<svg xmlns="http://www.w3.org/2000/svg" version="1.1" xmlns:xlink="http://www.w3.org/1999/xlink" xmlns:svgjs="http://svgjs.com/svgjs" width="1440" height="560" preserveAspectRatio="none" viewBox="0 0 1440 560"><g mask="url(&quot;#SvgjsMask1001&quot;)" fill="none"><path d="M989.84 65.77L1009.62 65.77L1009.62 93.66L989.84 93.66z" stroke="#d3b714"></path><path d="M476.12 507.21L524.73 507.21L524.73 555.82L476.12 555.82z" stroke="#037b0b"></path><path d="M292.59 471.7 a49.4 49.4 0 1 0 98.8 0 a49.4 49.4 0 1 0 -98.8 0z" fill="#037b0b"></path><path d="M62.3 450.44L77.69 450.44L77.69 478.28L62.3 478.28z" fill="#037b0b"></path><path d="M54.97 552.3L104.08 552.3L104.08 601.41L54.97 601.41z" fill="#d3b714"></path><path d="M1246.79 109.65a53.57 53.57 0 1 0 105.14-20.6z" stroke="#037b0b"></path><path d="M749.82 103.89a54.88 54.88 0 1 0 79.97 75.18z" fill="#037b0b"></path><path d="M995.05 174.86L1014.14 174.86L1014.14 193.95L995.05 193.95z" fill="#d3b714"></path><path d="M1040.78 326.74L1080.27 326.74L1080.27 381.58L1040.78 381.58z" fill="#e73635"></path><path d="M437.05 558.77L454.56 558.77L454.56 576.28L437.05 576.28z" fill="#037b0b"></path><path d="M39.43 271.56L44.15 271.56L44.15 276.28L39.43 276.28z" stroke="#037b0b"></path><path d="M709.44 146.96L756.23 146.96L756.23 160.49L709.44 160.49z" stroke="#e73635"></path><path d="M1334.48 79.64a6.77 6.77 0 1 0 10.98 7.92z" stroke="#e73635"></path><path d="M181.17 475.36a44.29 44.29 0 1 0 73.86 48.9z" stroke="#e73635"></path><path d="M758.35 59.51L788.97 59.51L788.97 90.13L758.35 90.13z" stroke="#037b0b"></path><path d="M965.41 427.15L969.86 427.15L969.86 431.6L965.41 431.6z" stroke="#d3b714"></path><path d="M1246.99 186.81a0.59 0.59 0 1 0-1.18 0.05z" fill="#e73635"></path><path d="M1274.3 453.98a1.28 1.28 0 1 0 0.64-2.48z" stroke="#037b0b"></path><path d="M177.94 396.08L180.16 396.08L180.16 422.15L177.94 422.15z" stroke="#d3b714"></path><path d="M1203.78 391.9L1237 391.9L1237 413.43L1203.78 413.43z" stroke="#037b0b"></path><path d="M792.35 295.05L844.81 295.05L844.81 301.41L792.35 301.41z" stroke="#e73635"></path><path d="M840.67 7.22L891.21 7.22L891.21 45.24L840.67 45.24z" stroke="#d3b714"></path><path d="M389.48 226.46L418.42 226.46L418.42 261.73L389.48 261.73z" stroke="#e73635"></path><path d="M832.13 287.96 a11.01 11.01 0 1 0 22.02 0 a11.01 11.01 0 1 0 -22.02 0z" stroke="#e73635"></path><path d="M1305.57 146.56a6.88 6.88 0 1 0 6.54 12.1z" stroke="#d3b714"></path><path d="M821.88 197.77 a11.56 11.56 0 1 0 23.12 0 a11.56 11.56 0 1 0 -23.12 0z" stroke="#d3b714"></path><path d="M255.73 230.96a2.05 2.05 0 1 0 0.8-4.02z" stroke="#037b0b"></path><path d="M467.67 61.64L521.72 61.64L521.72 104.3L467.67 104.3z" stroke="#d3b714"></path><path d="M830.2 150.78L882.53 150.78L882.53 192.22L830.2 192.22z" stroke="#037b0b"></path><path d="M809.07 21.97L816.36 21.97L816.36 54.22L809.07 54.22z" stroke="#037b0b"></path><path d="M333.76 52.17L356.34 52.17L356.34 54.74L333.76 54.74z" fill="#037b0b"></path><path d="M686.11 259.86L691.01 259.86L691.01 265.77L686.11 265.77z" stroke="#d3b714"></path><path d="M1279.48 551.96 a12.8 12.8 0 1 0 25.6 0 a12.8 12.8 0 1 0 -25.6 0z" stroke="#e73635"></path></g><defs><mask id="SvgjsMask1001"><rect width="1440" height="560" fill="#ffffff"></rect></mask></defs></svg>