<svg xmlns="http://www.w3.org/2000/svg" version="1.1" xmlns:xlink="http://www.w3.org/1999/xlink" xmlns:svgjs="http://svgjs.com/svgjs" width="1440" height="560" preserveAspectRatio="none" viewBox="0 0 1440 560"><g mask="url(&quot;#SvgjsMask1001&quot;)" fill="none"><path d="M364.07 667.02C543.58 660.9 673.11 387.43 1022.9 380.41 1372.68 373.39 1510.67 197.35 1681.72 195.61" stroke="rgba(51,121,194,0.58)" stroke-width="2"></path><path d="M730.23 601.79C888.91 574.47 967.53 184.45 1219.32 182.71 1471.1 180.97 1578.21 359.12 1708.4 361.91" stroke="rgba(51,121,194,0.58)" stroke-width="2"></path><path d="M403.78 627.81C544.86 583.76 573.89 188.51 787.83 178.35 1001.77 168.19 979.86 248.35 1171.89 248.35 1363.91 248.35 1458.35 178.64 1555.94 178.35" stroke="rgba(51,121,194,0.58)" stroke-width="2"></path><path d="M450.53 583.01C550.57 578.54 521.13 416.31 811.32 409.01 1101.51 401.71 1342.31 165.98 1532.9 162.61" stroke="rgba(51,121,194,0.58)" stroke-width="2"></path><path d="M557.59 618.1C661.25 599.25 599.41 359.88 873.98 339.68 1148.55 319.48 1333.88 65.84 1506.76 59.68" stroke="rgba(51,121,194,0.58)" stroke-width="2"></path></g><defs><mask id="SvgjsMask1001"><rect width="1440" height="560" fill="#ffffff"></rect></mask></defs></svg>