<svg data-v-329c6982="" viewBox="0 0 1003 809" fill="none" xmlns="http://www.w3.org/2000/svg" class="lg:w-24 lg:h-24 w-16 h-16"><path data-v-329c6982="" d="M688.906 758.365V736.161H778.98L716.927 673.364H753.09L888.218 808.66H851.507L800.939 758.365H688.906Z" fill="#FFF5F8"></path> <path data-v-329c6982="" d="M108.564 736.207L145.541 698.434L183.298 736.169L108.564 736.207ZM205.754 758.449L255.787 808.688L291.4 808.668L163.098 680.487L163.174 680.431L145.898 663.122L128.911 680.356L128.198 681.069L0.469727 808.668L36.1059 808.688L86.0141 758.547L205.754 758.449" fill="#FFF5F8"></path> <path data-v-329c6982="" d="M577.381 770.398L480.21 673.439L516.624 673.346L595.625 752.02L673.602 673.439L710.33 673.346L575.673 808.66H539.222L577.381 770.398" fill="#FFF5F8"></path> <path data-v-329c6982="" d="M838.428 673.383H1002.77V697.355H932.914V808.66H908.409V697.355H837.957V673.383H838.428Z" fill="#FFF5F8"></path> <path data-v-329c6982="" fill-rule="evenodd" clip-rule="evenodd" d="M436.359 781.902C431.778 784.534 424.282 785.863 413.842 785.863H335.915V748.097H413.842C424.346 748.097 431.873 749.426 436.359 752.057C441.633 755.212 444.253 760.152 444.253 766.986C444.253 773.886 441.633 778.845 436.359 781.902V781.902ZM335.915 693.187H415.667C424.458 693.187 430.709 694.426 434.395 696.867C438.085 699.326 439.936 703.419 439.936 709.257C439.936 714.911 437.984 719.09 434.058 721.781C430.577 724.147 424.458 725.311 415.667 725.311H335.915V693.187ZM445.699 736.143C459.363 730.203 466.221 720.524 466.221 707.023C466.221 694.915 461.743 685.697 452.782 679.278C448.285 676.048 443.04 673.74 437.046 672.388C431.065 671.055 423.126 670.398 413.302 670.398H310.846V808.66H414.304C424.076 808.66 432.278 807.89 438.885 806.287C445.47 804.692 451.325 802.123 456.337 798.519C466.258 791.33 471.207 781.441 471.207 768.822C471.207 752.925 462.711 742.052 445.699 736.143" fill="#FFF5F8"></path> <path data-v-329c6982="" d="M500.489 457.584C500.489 457.584 436.616 399.423 244.916 432.579C332.106 378.342 436.21 284.649 500.489 128.013C500.489 263.211 500.489 457.584 500.489 457.584ZM513.373 454.656C513.373 454.656 513.316 38.8591 513.373 0.50946H0.526367V503.069H3.93123C25.7606 490.754 414.332 274.081 500.489 0.586304C500.489 0.586304 500.489 22.8849 500.489 57.6686C474.662 139.84 399.346 314.798 202.538 440.97C146.379 453.472 80.8352 473.165 4.43094 503.069H1002.85V503.013C621.223 353.525 513.373 454.656 513.373 454.656ZM514.198 0.50946C597.217 279.806 975.037 487.394 1002.85 502.713V0.50946H514.198Z" fill="#F1471D"></path> <path data-v-329c6982="" d="M1002.77 586.673H0.469727V541.938H1002.77V586.673Z" fill="#F1471D"></path></svg>
