<svg data-v-329c6982="" viewBox="0 0 392 128" fill="none" xmlns="http://www.w3.org/2000/svg" class="w-32"><g data-v-329c6982="" opacity="0.974563"><g data-v-329c6982="" opacity="0.974563"><path data-v-329c6982="" opacity="0.974563" fill-rule="evenodd" clip-rule="evenodd" d="M58.8708 75.4066V46.9948C58.8708 45.9828 58.0505 45.1625 57.0386 45.1625H28.7708V15.835H86.2266C87.2385 15.835 88.0588 16.6553 88.0588 17.6672V75.4066H58.8708Z" fill="white"></path> <path data-v-329c6982="" opacity="0.404989" fill-rule="evenodd" clip-rule="evenodd" d="M28.7709 15.8354V45.163H1.78721C1.28125 45.163 0.871094 44.7529 0.871094 44.2469C0.871094 44.0047 0.967014 43.7723 1.13788 43.6007L28.7709 15.8354Z" fill="white"></path> <path data-v-329c6982="" opacity="0.404989" fill-rule="evenodd" clip-rule="evenodd" d="M58.8711 102.515V75.4062H88.0591L60.4366 103.161C60.0797 103.519 59.4996 103.521 59.141 103.164C58.9682 102.992 58.8711 102.758 58.8711 102.515Z" fill="white"></path> <path data-v-329c6982="" opacity="0.404989" fill-rule="evenodd" clip-rule="evenodd" d="M28.7708 45.1621H57.9547C58.4607 45.1621 58.8708 45.5723 58.8708 46.0782V75.4062H30.603C29.5911 75.4062 28.7708 74.5858 28.7708 73.5739V45.1621Z" fill="white"></path></g></g> <path data-v-329c6982="" d="M200.501 36.076H188.956V57.953C188.956 59.7761 189.411 61.1084 190.32 61.9498C191.229 62.7912 192.558 63.2645 194.307 63.3697C195.906 63.4659 197.857 63.4594 200.159 63.3503C200.242 63.3463 200.351 63.3409 200.485 63.334C200.656 63.3252 200.801 63.4567 200.81 63.6276C200.81 63.6329 200.811 63.6381 200.811 63.6434V75.3456C200.811 75.5036 200.692 75.6362 200.535 75.6535C200.449 75.663 200.378 75.6707 200.321 75.6767C191.279 76.6432 184.885 75.7488 181.141 72.9935C177.33 70.1887 175.424 65.1753 175.424 57.953V36.076H166.607C166.436 36.076 166.297 35.9373 166.297 35.7662V23.3438C166.297 23.1727 166.436 23.034 166.607 23.034H175.424V14.345C175.424 14.0995 175.569 13.8772 175.793 13.7781L188.522 8.16142C188.678 8.09235 188.861 8.16325 188.93 8.31979C188.947 8.35919 188.956 8.40179 188.956 8.44486V23.034H200.501C200.672 23.034 200.811 23.1727 200.811 23.3438V35.7662C200.811 35.9373 200.672 36.076 200.501 36.076ZM225.348 32.0793C226.607 28.7136 228.687 26.1893 231.59 24.5065C234.246 22.9664 237.18 22.131 240.393 22.0004C240.535 21.9945 240.731 21.9898 240.979 21.9861C241.15 21.9834 241.291 22.1201 241.293 22.2912C241.293 22.2927 241.293 22.2943 241.293 22.2958V36.5616C241.293 36.8432 241.065 37.0716 240.783 37.0716C240.768 37.0716 240.752 37.0709 240.737 37.0695C236.835 36.7156 233.331 37.5765 230.226 39.6521C226.974 41.8258 225.348 45.4368 225.348 50.4854V75.3131C225.348 75.4842 225.209 75.6229 225.038 75.6229H212.125C211.954 75.6229 211.815 75.4842 211.815 75.3131V23.3438C211.815 23.1727 211.954 23.034 212.125 23.034H225.038C225.209 23.034 225.348 23.1727 225.348 23.3438V32.0793ZM289.334 23.034H302.247C302.418 23.034 302.557 23.1727 302.557 23.3438V75.3131C302.557 75.4842 302.418 75.6229 302.247 75.6229H289.334C289.163 75.6229 289.025 75.4842 289.025 75.3131V69.4174C284.968 74.5361 279.268 77.0954 271.925 77.0954C264.932 77.0954 258.935 74.4134 253.934 69.0493C248.934 63.6852 246.434 57.1117 246.434 49.3284C246.434 41.5452 248.934 34.9717 253.934 29.6076C258.935 24.2435 264.932 21.5615 271.925 21.5615C279.268 21.5615 284.968 24.1208 289.025 29.2395V23.3438C289.025 23.1727 289.163 23.034 289.334 23.034ZM264.057 60.0566C266.785 62.7912 270.247 64.1585 274.443 64.1585C278.639 64.1585 282.118 62.7737 284.881 60.004C287.643 57.2343 289.025 53.6758 289.025 49.3284C289.025 44.9811 287.643 41.4226 284.881 38.6529C282.118 35.8832 278.639 34.4984 274.443 34.4984C270.247 34.4984 266.785 35.8832 264.057 38.6529C261.33 41.4226 259.966 44.9811 259.966 49.3284C259.966 53.6758 261.33 57.2518 264.057 60.0566ZM343.238 21.5615C350.301 21.5615 356.333 24.2435 361.334 29.6076C366.334 34.9717 368.834 41.5452 368.834 49.3284C368.834 57.1117 366.334 63.6852 361.334 69.0493C356.333 74.4134 350.301 77.0954 343.238 77.0954C335.894 77.0954 330.23 74.5361 326.243 69.4174V96.3487C326.243 96.5198 326.105 96.6585 325.933 96.6585H313.02C312.849 96.6585 312.711 96.5198 312.711 96.3487V23.3438C312.711 23.1727 312.849 23.034 313.02 23.034H325.933C326.105 23.034 326.243 23.1727 326.243 23.3438V29.2395C330.23 24.1208 335.894 21.5615 343.238 21.5615ZM330.334 60.0566C333.062 62.7912 336.524 64.1585 340.72 64.1585C344.916 64.1585 348.395 62.7737 351.158 60.004C353.92 57.2343 355.302 53.6758 355.302 49.3284C355.302 44.9811 353.92 41.4226 351.158 38.6529C348.395 35.8832 344.916 34.4984 340.72 34.4984C336.524 34.4984 333.062 35.8832 330.334 38.6529C327.607 41.4226 326.243 44.9811 326.243 49.3284C326.243 53.6758 327.607 57.2518 330.334 60.0566ZM383.608 16.7233C381.37 16.7233 379.429 15.8994 377.785 14.2516C376.142 12.6038 375.32 10.658 375.32 8.41423C375.32 6.17043 376.142 4.20713 377.785 2.52427C379.429 0.841415 381.37 0 383.608 0C385.915 0 387.891 0.841415 389.535 2.52427C391.178 4.20713 392 6.17043 392 8.41423C392 10.658 391.178 12.6038 389.535 14.2516C387.891 15.8994 385.915 16.7233 383.608 16.7233ZM376.894 75.3131V23.3438C376.894 23.1727 377.032 23.034 377.204 23.034H390.117C390.288 23.034 390.426 23.1727 390.426 23.3438V75.3131C390.426 75.4842 390.288 75.6229 390.117 75.6229H377.204C377.032 75.6229 376.894 75.4842 376.894 75.3131ZM134.511 37.9692C134.511 39.3716 135.438 40.511 137.291 41.3875C139.145 42.264 141.4 43.0353 144.058 43.7014C146.715 44.3676 149.373 45.209 152.03 46.2257C154.688 47.2424 156.943 48.9428 158.797 51.3268C160.65 53.7109 161.577 56.6909 161.577 60.267C161.577 65.6661 159.566 69.8206 155.545 72.7305C151.523 75.6405 146.505 77.0954 140.491 77.0954C129.962 77.0954 122.709 73.1084 118.73 65.1344C118.695 65.0655 118.652 64.9766 118.599 64.8676C118.525 64.7135 118.589 64.5283 118.744 64.4539C118.746 64.4525 118.749 64.4511 118.752 64.4498L130.135 59.3933C130.435 59.2602 130.786 59.3834 130.937 59.6744C130.938 59.6776 130.94 59.6806 130.941 59.6836C132.714 63.0876 135.897 64.7896 140.491 64.7896C145.316 64.7896 147.729 63.2821 147.729 60.267C147.729 58.8646 146.803 57.7252 144.949 56.8487C143.096 55.9722 140.841 55.1834 138.183 54.4822C135.525 53.781 132.868 52.9045 130.21 51.8527C127.553 50.8009 125.297 49.1356 123.444 46.8568C121.591 44.5779 120.664 41.7206 120.664 38.2848C120.664 33.096 122.57 29.0116 126.381 26.0315C130.193 23.0515 134.931 21.5615 140.596 21.5615C144.862 21.5615 148.743 22.5256 152.24 24.4539C155.415 26.2045 157.946 28.5023 159.903 31.5867C160.003 31.744 160.137 31.9652 160.305 32.2503C160.393 32.3976 160.344 32.5876 160.196 32.6746C160.186 32.6807 160.175 32.6862 160.164 32.691L148.752 37.7529C148.551 37.8423 148.314 37.7724 148.194 37.5879C146.481 34.9672 143.948 33.6569 140.596 33.6569C138.847 33.6569 137.396 34.0426 136.242 34.8139C135.088 35.5852 134.511 36.637 134.511 37.9692Z" fill="white"></path> <path data-v-329c6982="" d="M157.066 103.966L150.631 127H145.186L140.863 110.599L136.342 127L130.93 127.033L124.726 103.966H129.676L133.735 121.852L138.421 103.966H143.569L147.991 121.753L152.083 103.966H157.066Z" fill="white"></path> <path data-v-329c6982="" d="M168.663 107.695V113.47H176.418V117.133H168.663V123.238H177.408V127H164.043V103.933H177.408V107.695H168.663Z" fill="white"></path> <path data-v-329c6982="" d="M186.49 103.966H191.341L187.777 112.282H184.609L186.49 103.966Z" fill="white"></path> <path data-v-329c6982="" d="M210.494 127L205.412 118.024H203.234V127H198.614V103.966H207.26C209.042 103.966 210.56 104.285 211.814 104.923C213.068 105.539 214.003 106.386 214.619 107.464C215.257 108.52 215.576 109.708 215.576 111.028C215.576 112.546 215.136 113.921 214.256 115.153C213.376 116.363 212.067 117.199 210.329 117.661L215.84 127H210.494ZM203.234 114.559H207.095C208.349 114.559 209.284 114.262 209.9 113.668C210.516 113.052 210.824 112.205 210.824 111.127C210.824 110.071 210.516 109.257 209.9 108.685C209.284 108.091 208.349 107.794 207.095 107.794H203.234V114.559Z" fill="white"></path> <path data-v-329c6982="" d="M228.335 107.695V113.47H236.09V117.133H228.335V123.238H237.08V127H223.715V103.933H237.08V107.695H228.335Z" fill="white"></path> <path data-v-329c6982="" d="M276.168 103.966V127H271.548V117.199H261.681V127H257.061V103.966H261.681V113.437H271.548V103.966H276.168Z" fill="white"></path> <path data-v-329c6982="" d="M289.296 103.966V127H284.676V103.966H289.296Z" fill="white"></path> <path data-v-329c6982="" d="M309.7 127L304.618 118.024H302.44V127H297.82V103.966H306.466C308.248 103.966 309.766 104.285 311.02 104.923C312.274 105.539 313.209 106.386 313.825 107.464C314.463 108.52 314.782 109.708 314.782 111.028C314.782 112.546 314.342 113.921 313.462 115.153C312.582 116.363 311.273 117.199 309.535 117.661L315.046 127H309.7ZM302.44 114.559H306.301C307.555 114.559 308.49 114.262 309.106 113.668C309.722 113.052 310.03 112.205 310.03 111.127C310.03 110.071 309.722 109.257 309.106 108.685C308.49 108.091 307.555 107.794 306.301 107.794H302.44V114.559Z" fill="white"></path> <path data-v-329c6982="" d="M327.541 103.966V127H322.921V103.966H327.541Z" fill="white"></path> <path data-v-329c6982="" d="M355.767 127H351.147L340.686 111.193V127H336.066V103.933H340.686L351.147 119.773V103.933H355.767V127Z" fill="white"></path> <path data-v-329c6982="" d="M380.33 110.896C379.802 109.928 379.076 109.191 378.152 108.685C377.228 108.179 376.15 107.926 374.918 107.926C373.554 107.926 372.344 108.234 371.288 108.85C370.232 109.466 369.407 110.346 368.813 111.49C368.219 112.634 367.922 113.954 367.922 115.45C367.922 116.99 368.219 118.332 368.813 119.476C369.429 120.62 370.276 121.5 371.354 122.116C372.432 122.732 373.686 123.04 375.116 123.04C376.876 123.04 378.317 122.578 379.439 121.654C380.561 120.708 381.298 119.399 381.65 117.727H373.73V114.196H386.204V118.222C385.896 119.828 385.236 121.313 384.224 122.677C383.212 124.041 381.903 125.141 380.297 125.977C378.713 126.791 376.931 127.198 374.951 127.198C372.729 127.198 370.716 126.703 368.912 125.713C367.13 124.701 365.722 123.304 364.688 121.522C363.676 119.74 363.17 117.716 363.17 115.45C363.17 113.184 363.676 111.16 364.688 109.378C365.722 107.574 367.13 106.177 368.912 105.187C370.716 104.175 372.718 103.669 374.918 103.669C377.514 103.669 379.769 104.307 381.683 105.583C383.597 106.837 384.917 108.608 385.643 110.896H380.33Z" fill="white"></path></svg>
